# xmcd CD database file
# Generated: Sat May 31 16:22:41 2003 by WSPse's MP3c
#
# Track frame offsets:
#       150
#       13952
#       31322
#       53480
#       72202
#       86477
#       98792
#       118060
#       139132
#       153060
#       171390
#       185080
#       200790
#
# Disc length: 2925 seconds
#
# Revision: 2
# Processed by: cddbd v1.4PL0 Copyright (c) Steve Scherf et al.
# Submitted via: MP3c 0.27
#   WSPse mp3c-0.27 (NLS) - ENGLISH (Jun 27 2001)
#
DISCID=b30b6b0d
DTITLE=Steve Earle - Sidetracks
DYEAR=1900
DGENRE=
TTITLE0=Some Dreams
TTITLE1=Open Your Window
TTITLE2=Me And The Eagle
TTITLE3=Johnny Too Bad
TTITLE4=Dominick St.
TTITLE5=Breed
TTITLE6=Time Has Come Today
TTITLE7=Ellis Unit One
TTITLE8=Creepy Jackalope Eye
TTITLE9=Willin'
TTITLE10=Sara's Angel
TTITLE11=My Uncle
TTITLE12=My Back Pages
EXTD=
EXTT0=
EXTT1=
EXTT2=
EXTT3=
EXTT4=
EXTT5=
EXTT6=
EXTT7=
EXTT8=
EXTT9=
EXTT10=
EXTT11=
EXTT12=
PLAYORDER=
